<?xml version="1.0" encoding="UTF-8"?>
<svg width="600px" height="400px" viewBox="0 0 600 400" version="1.1" xmlns="http://www.w3.org/2000/svg" xmlns:xlink="http://www.w3.org/1999/xlink">
    <title>团队合作的钱</title>
    <g id="团队合作的钱" stroke="none" strokeWidth="1" fill="none" fill-rule="evenodd">
        <rect fill="#FFFFFF" x="0" y="0" width="600" height="400"></rect>
        <g id="plant_22_" transform="translate(46.000000, 290.874055)" fill-rule="nonzero">
            <path d="M110.462009,81.0291083 C110.19895,81.985005 105.040483,77.4465189 98.832485,81.2431285 C92.6244867,85.039738 84.3804885,86.7078363 81.064331,85.7429471 C77.7472726,84.7780579 71.6771097,89.2041385 63.2853664,87.104403 C54.893623,85.0046675 54.6774106,81.0947531 51.0198177,79.4266549 C48.5549965,78.3025995 44.0307522,78.9689395 35.0624425,73.7200504 C20.5626991,65.2356801 16.9195204,53.7172594 11.8430336,52.1651637 C5.54764956,50.2407809 0.962145133,53.9267834 0.962145133,53.9267834 C0.962145133,53.9267834 -1.7486177,52.1354887 9.52775929,47.3820831 C20.8041363,42.6286776 20.1158602,39.1297179 23.492377,37.7943401 C26.8688938,36.4589622 28.8346248,41.2420428 37.6804142,35.9544861 C46.5262035,30.6669295 43.9154389,38.4328035 56.4773788,33.9105038 C69.0393186,29.3891033 86.4507221,43.9946297 91.0848743,49.6535743 C101.136949,61.9291587 98.1099752,66.9073753 105.575609,75.4340101 C109.3332,79.7261033 111.129565,78.5993501 110.462009,81.0291083 Z" id="Path" fill="#F3F9FF"></path>
            <path d="M118.772673,73.6499093 C110.476423,68.8218665 102.520708,64.7698715 94.964085,61.3644332 C90.9947858,55.1353678 84.7804814,44.5350756 76.1950478,39.3635214 C82.2525982,43.9397758 87.2885451,52.2344055 90.8911841,59.5767355 C84.016531,56.6326096 77.4986283,54.2289295 71.3870248,52.2712746 C67.8573575,46.0332166 61.2610779,37.8581864 54.7395717,34.706335 C59.8800212,38.0380353 64.7556106,45.1123904 67.6618655,51.1157456 C35.8345009,41.5891511 15.9898071,44.2563098 15.9898071,44.2563098 C30.2976619,44.5296801 45.4037009,47.7148035 59.4674159,51.9925088 C54.4738106,54.7783678 48.3982425,57.7836423 43.0523912,59.8357179 C49.7144354,58.3375768 57.8809575,55.5454232 63.499777,53.2568463 C69.983446,55.3511864 76.1995522,57.6451587 81.9580088,59.9562166 C79.6661575,62.158466 76.1464,65.0018766 72.708623,67.1061083 C72.8960071,66.9999975 71.7194513,67.8344962 67.0798938,69.9153476 C67.3438531,69.8155315 77.4364673,67.1052091 84.9885858,61.1908791 C104.127887,69.10333 117.50783,76.8044584 117.50783,76.8044584 L118.772673,73.6499093 Z" id="Path" fill="#C4E2FE"></path>
            <path d="M80.2958761,49.8837809 C79.9256124,50.5582141 76.7797221,46.1465214 71.3545929,47.8550856 C65.9303646,49.5636499 59.3241752,49.2749924 56.9557487,47.918932 C54.5873221,46.5628715 49.1567876,48.7741134 43.1046425,45.6015793 C37.0524973,42.4281461 37.5786142,39.42467 35.074154,37.4706121 C33.3858956,36.1541184 29.8048779,35.8070101 23.868046,30.139073 C14.2709186,20.9757733 13.5213823,11.5588866 9.90973451,9.42587909 C5.4314354,6.78120151 1.26844602,8.71187909 1.26844602,8.71187909 C1.26844602,8.71187909 -0.490081416,6.84324937 8.98452566,5.36399244 C18.4591327,3.88473552 18.551023,1.10247355 21.3725947,0.726589421 C24.1941664,0.35070529 24.8518124,4.34604786 32.5597841,2.00441562 C40.2677558,-0.337216625 36.8939416,5.05735013 47.3108743,3.99624181 C57.7278071,2.9351335 68.4717611,17.287073 71.0167611,22.4487355 C76.5391858,33.6479244 73.3401434,36.8510327 77.5454743,44.7212191 C79.662554,48.6832897 81.2373009,48.1680227 80.2958761,49.8837809 Z" id="Path" fill="#DCEEFD"></path>
            <path d="M56.3467504,15.8024207 C60.1755115,20.4137456 62.5628566,27.654461 64.0204885,33.8997128 C59.2782301,30.3719773 54.7161487,27.3244383 50.3837929,24.6887531 C48.7874248,19.2941864 45.183885,11.8493426 40.7461257,8.22988413 C44.0920124,11.7243476 46.5730496,18.0073678 47.7342903,23.1060831 C25.0572142,9.89078841 9.39082478,8.16963476 9.39082478,8.16963476 C20.2951363,11.0714962 31.2958425,16.3320756 41.3046743,22.2239244 C36.9885345,23.3947406 31.8057434,24.5286877 27.3499664,25.0772267 C32.7165381,25.1968262 39.4605628,24.6177128 44.1667858,23.9414811 C48.7585965,26.7498212 53.1089699,29.6588766 57.1070973,32.494194 C54.9620903,33.7333526 51.7756602,35.225199 48.7649027,36.174801 C48.9270619,36.1298388 47.8793327,36.5407935 43.9586814,37.2440025 C44.1784973,37.2179244 52.380154,37.0596574 59.2070602,34.0004282 C72.4608796,43.6052569 81.3427044,51.9655315 81.3427044,51.9655315 L82.8706053,49.8127406 C77.3743062,44.5899295 72.0077345,40.0370554 66.8258442,36.0327204 C64.8907434,30.5653149 62.0097133,21.3453627 56.3467504,15.8024207 Z" id="Path" fill="#B8DDFE"></path>
        </g>
        <path d="M407.320632,22.0260781 L301.270257,69.0844332 L334.405706,93.1401184 C293.953269,137.355962 255.776467,163.976292 208.04488,185.953824 C175.881485,200.142101 138.610973,211.085904 103.658439,214.026433 C169.756368,224.115055 263.010573,192.58665 315.476312,152.141338 C341.821791,132.497345 345.832531,127.341078 361.297122,112.662713 L395.134361,137.22737 L407.320632,22.0260781 Z" id="arrow_up" fill="#224380" fill-rule="nonzero"></path>
        <g id="man_5_" transform="translate(83.837168, 164.979849)" fill-rule="nonzero">
            <path d="M73.2869912,43.7878035 C73.2869912,43.7878035 75.1860566,49.1733778 77.3355681,53.270335 C79.4841788,57.3672922 89.3506708,63.0172443 92.9551115,64.2357204 C95.7829894,65.1916171 99.0874354,63.5666826 103.010789,63.7186549 C104.29455,63.7681134 104.574726,65.0603275 103.081959,65.8399723 C101.981979,66.4145894 100.103634,67.1474736 100.489212,67.9001411 C100.874791,68.6528086 101.028842,68.9198841 104.326982,71.3145718 C107.624221,73.7092594 103.281956,77.2010252 100.775694,77.307136 C98.3730336,77.4087506 95.4442566,73.4952393 93.3172673,71.4674433 C90.5407398,68.820068 79.3409381,67.1321864 72.3554761,60.811398 C65.5474885,54.6506751 62.560154,47.5421486 62.560154,47.5421486 C62.560154,47.5421486 67.1618743,43.1790151 73.2869912,43.7878035 Z" id="Path" fill="#F1B282"></path>
            <path d="M68.8186018,33.4572846 C68.8186018,33.4572846 73.2518566,44.3669169 75.6806425,47.3614005 C77.1833186,49.2138438 69.623092,58.5066348 68.6177044,58.4239043 C67.6123168,58.3411738 63.7934655,48.4791612 63.7934655,48.4791612 C63.7934655,48.4791612 65.3853292,35.8816474 68.8186018,33.4572846 Z" id="Path" fill="#1EAF69"></path>
            <g id="Group" transform="translate(63.061947, 24.279597)">
                <path d="M82.9706035,41.9947103 C82.9706035,50.8837406 80.1508336,59.1208186 75.3374053,65.8480655 C72.6897044,69.6230932 69.3888619,72.9179244 65.6069469,75.5608035 C58.8674265,80.365466 50.6162212,83.1801008 41.7100726,83.1801008 C18.9140796,83.1801008 0.449541593,64.7500882 0.449541593,41.9947103 C0.449541593,33.1056801 3.2693115,24.868602 8.08273982,18.1413552 C10.7304407,14.3663275 14.0312832,11.0714962 17.8131982,8.42861713 C24.5527186,3.62395466 32.8039239,0.809319899 41.7100726,0.809319899 C64.5069664,0.810219144 82.9706035,19.2402317 82.9706035,41.9947103 Z" id="Path" fill="#FFE18D"></path>
                <path d="M75.3374053,65.8480655 C72.6897044,69.6230932 69.3888619,72.9179244 65.6069469,75.5608035 L8.08364071,18.1422544 C10.7313416,14.3672267 14.0321841,11.0723955 17.8140991,8.42951637 L75.3374053,65.8480655 Z" id="Path" fill="#FFD972"></path>
                <path d="M8.08364071,65.8480655 C10.7313416,69.6230932 14.0321841,72.9179244 17.8140991,75.5608035 L75.3374053,18.1422544 C72.6897044,14.3672267 69.3888619,11.0723955 65.6069469,8.42951637 L8.08364071,65.8480655 Z" id="Path" fill="#FFD972"></path>
                <path d="M76.0941487,41.9947103 C76.0941487,49.4017859 73.7446407,56.2666171 69.733,61.8725063 C67.5267327,65.0189622 64.776331,67.7643552 61.6241345,69.9666045 C56.0080177,73.9709395 49.1315628,76.3161688 41.7100726,76.3161688 C22.7131115,76.3161688 7.32689735,60.9579748 7.32689735,41.9956096 C7.32689735,34.5876348 9.67640531,27.7237028 13.688046,22.1178136 C15.8943133,18.9713577 18.644715,16.2259647 21.7969115,14.0237154 C27.4130283,10.0193804 34.2894832,7.67415113 41.7109735,7.67415113 C60.7079345,7.67415113 76.0941487,23.0323451 76.0941487,41.9947103 Z" id="Path" fill="#FFD255"></path>
                <path d="M67.6699735,19.5145013 C61.6529628,14.2629144 53.7792283,11.1056675 45.1487504,11.1056675 C26.1689062,11.1056675 10.7655752,26.4809471 10.7655752,45.4262267 C10.7655752,54.0409874 13.9285823,61.9003829 19.1897504,67.9064358 C11.9349239,61.6261134 7.32779823,52.3252292 7.32779823,41.9938111 C7.32779823,23.0485315 22.7311292,7.67325189 41.7109735,7.67325189 C52.0603398,7.67415113 61.3781929,12.2728866 67.6699735,19.5145013 Z" id="Path" fill="#FFC31B"></path>
                <path d="M15.7510726,64.4749194 C21.7680832,69.7265063 29.6418177,72.8837531 38.2722956,72.8837531 C57.2521398,72.8837531 72.6554708,57.5084736 72.6554708,38.563194 C72.6554708,29.9484332 69.4924637,22.0890378 64.2312956,16.0829849 C71.4861221,22.3642065 76.0932478,31.6641914 76.0932478,41.9956096 C76.0932478,60.9408892 60.6899168,76.3161688 41.7100726,76.3161688 C31.3616071,76.3161688 22.043754,71.7174332 15.7510726,64.4749194 Z" id="Path" fill="#FFC31B"></path>
                <path d="M46.5370142,48.0214458 C46.5370142,46.92167 46.2316142,46.0476045 45.6199133,45.3974509 C45.0091133,44.7472972 43.9712938,44.1475013 42.5073558,43.598063 C41.0434177,43.0486247 39.7812779,42.5018841 38.7200354,41.9587406 C37.6587929,41.415597 36.7488991,40.7924207 35.990354,40.0883123 C35.2318088,39.384204 34.6408283,38.5568992 34.2174124,37.6045995 C33.7939965,36.6522997 33.5831894,35.5201511 33.5831894,34.2063552 C33.5831894,31.9402594 34.3084018,30.0842191 35.7588265,28.6355365 C37.2092513,27.1877531 39.1371451,26.3433627 41.5407062,26.101466 L41.5407062,21.7976826 L44.7640726,21.7976826 L44.7640726,26.1617154 C47.141508,26.4971335 49.0018354,27.485403 50.3450549,29.1283224 C51.6882743,30.7703426 52.3594336,32.8988539 52.3594336,35.5129572 L46.5370142,35.5129572 C46.5370142,33.9042091 46.2045876,32.7010202 45.5397345,31.9033904 C44.8748814,31.1057607 43.9848071,30.7064962 42.8704124,30.7064962 C41.7686301,30.7064962 40.9163929,31.018534 40.3118991,31.6417103 C39.7074053,32.2648866 39.4056088,33.1263627 39.4056088,34.2261385 C39.4056088,35.2449824 39.7010991,36.0623955 40.2920796,36.6792771 C40.8830602,37.2961587 41.9812389,37.926529 43.585715,38.5694887 C45.191092,39.2133476 46.5099876,39.8194383 47.5442035,40.3895592 C48.5784195,40.9596801 49.451377,41.6026398 50.1630761,42.3202368 C50.8747752,43.0378338 51.4189097,43.8552469 51.7945788,44.7733753 C52.1702478,45.6915038 52.3585327,46.7607053 52.3585327,47.9809798 C52.3585327,50.259665 51.6468336,52.1103098 50.2234354,53.5311159 C48.8000372,54.9519219 46.8388106,55.7900176 44.3406566,56.0445038 L44.3406566,60.0461411 L41.1371097,60.0461411 L41.1371097,56.0642872 C38.3840053,55.769335 36.2516106,54.7936549 34.7408265,53.1381461 C33.2300425,51.4826373 32.4742,49.2803879 32.4742,46.5322972 L38.2966195,46.5322972 C38.2966195,48.1275567 38.675892,49.3514282 39.4353381,50.2021134 C40.1947841,51.0527985 41.2857558,51.4790403 42.709154,51.4790403 C43.891115,51.4790403 44.8244319,51.1670025 45.5091044,50.5438262 C46.193777,49.9206499 46.5370142,49.0807557 46.5370142,48.0214458 Z" id="Path" fill="#FFF0C6"></path>
            </g>
            <g id="Group" transform="translate(58.557522, 6.294710)">
                <path d="M23.5148991,6.39722418 C23.5680513,9.00143577 22.2590655,9.65878338 22.0545646,10.6272695 C21.8500637,11.5957557 22.0086195,13.8762393 21.5599788,14.6594811 C21.1113381,15.4427229 19.8519009,14.8699043 18.9411062,15.7097985 C18.0303115,16.5496927 17.8537381,18.2177909 16.2753876,18.7438489 C14.6970372,19.2699068 11.3889876,17.062262 10.9322389,18.1755264 C10.4754903,19.2887909 10.2061257,24.2310378 10.2061257,24.2310378 L0.331525664,18.8337733 C0.331525664,18.8337733 4.47199292,13.7692292 5.22423186,11.1308463 C5.9764708,8.49246348 9.79261947,-0.601594458 13.4096726,0.0872267003 C17.0267257,0.776047859 23.4581434,3.6329471 23.5148991,6.39722418 Z" id="Path" fill="#F1B282"></path>
                <path d="M10.9295363,18.1764257 C10.8385469,18.3967406 10.7547646,18.7645315 10.6826938,19.2096574 C9.8385646,17.5343652 10.7862956,15.671131 10.7862956,15.671131 C12.5502283,18.2258841 15.4411681,18.8130907 15.4411681,18.8130907 C15.4411681,18.8130907 15.4411681,18.8130907 15.4312584,18.8166877 C13.7393965,18.6683123 11.323223,17.2376146 10.9295363,18.1764257 Z" id="Path" fill="#CD916A"></path>
            </g>
            <path d="M83.248977,1.17531234 C83.248977,1.17531234 87.5525044,6.85493955 85.9678478,10.1075063 C84.6912938,12.7261058 82.7471841,14.6693728 77.3076407,12.0273929 C74.6887681,10.7549622 73.0572655,17.6980277 72.395115,17.3760982 C71.236577,16.8131713 71.4897257,12.7899521 70.1510106,12.1397985 C68.237531,11.2099798 64.5430018,22.5341637 62.5619558,21.5728715 C59.8836248,20.271665 56.7881841,14.2503249 60.2755097,7.09593703 C64.9592106,-2.51069018 73.8788726,0.0197833753 76.7220655,1.21487909 C79.5652584,2.40997481 83.248977,1.17531234 83.248977,1.17531234 Z" id="Path" fill="#0B224E"></path>
            <polygon id="Path" fill="#F1B282" points="9.88270796 134.973877 4.76928496 140.202982 9.37100531 143.396199 14.9970319 137.98005"></polygon>
            <polygon id="Path" fill="#F1B282" points="65.363708 141.616594 65.1970442 145.342164 58.7449062 144.90603 59.1467009 140.250642"></polygon>
            <path d="M47.415377,82.8689622 C47.415377,82.8689622 45.0118159,107.244778 40.1695593,115.181509 C35.4939664,122.844869 14.4537982,141.084242 14.4537982,141.084242 L7.5989646,135.348861 C7.5989646,135.348861 21.2419664,115.102375 27.4986124,107.053239 C24.141915,91.2130504 26.3265611,77.4006574 28.1688708,74.2245264 C30.0111805,71.046597 47.846,72.3522997 47.415377,82.8689622 Z" id="Path" fill="#0B224E"></path>
            <path d="M53.1810407,71.7147355 C53.1810407,71.7147355 55.8053186,78.5696751 61.8349416,83.2502418 C67.8645646,87.9317078 75.9040619,97.1264811 75.9040619,104.649559 C75.9040619,112.172637 66.0222549,141.932229 66.0222549,141.932229 L57.5962779,141.095932 C57.5962779,141.095932 58.8899487,114.73998 61.3322478,107.050542 C51.228823,101.05438 29.6769522,93.2804131 28.0013062,74.7227078 L53.1810407,71.7147355 Z" id="Path" fill="#102B5E"></path>
            <path d="M62.011515,56.8933904 C53.0035664,67.6483526 57.0341257,79.1236096 52.6306,77.826 C45.8190088,75.8197859 36.7038549,73.6445139 31.3057522,74.8315164 C25.6860319,76.0679773 22.5860867,75.1138791 24.9310903,70.5448186 C27.2760938,65.9757582 37.6605947,52.0428665 40.3398265,42.4578212 C42.2929451,35.4706927 50.5486549,25.6419521 59.4313805,24.4450579 C60.5223522,24.5169975 66.1889186,25.505267 68.9942743,27.4970932 C71.6789115,33.7387481 71.0194637,46.1384282 62.011515,56.8933904 Z" id="Path" fill="#2CCD7F"></path>
            <path d="M58.1151876,63.0685013 C57.2566442,64.9632091 56.679177,66.799466 56.2755805,68.4918438 C53.4540088,61.8653123 49.4639894,50.5069572 52.0756549,42.2375063 C52.0756549,42.2384055 52.450423,53.6830882 58.1151876,63.0685013 Z" id="Path" fill="#1EAF69"></path>
            <path d="M65.4880301,48.8064861 C65.4880301,48.8064861 66.1754053,54.9753023 67.4438513,59.8393149 C68.7122973,64.7042267 77.7706956,73.104068 81.2886513,75.2766423 C84.0480619,76.9816096 87.9461912,76.0706751 92.0641363,77.192932 C93.4118602,77.5598237 93.3902389,78.9968161 91.6172973,79.45633 C90.311915,79.7953451 88.1416832,80.1109798 88.3651027,81.0030302 C88.5885221,81.8950806 88.6858177,82.2152116 91.5893699,85.558602 C94.4929221,88.9019924 89.0353611,91.5358791 86.3552283,91.0341008 C83.7859044,90.553005 81.6463027,85.6916902 79.8931805,83.022733 C77.6040319,79.5399597 66.1591894,75.0086675 60.3160496,66.6034307 C54.6215558,58.4113149 53.2062655,50.1526549 53.2062655,50.1526549 C53.2062655,50.1526549 59.1512053,46.6608892 65.4880301,48.8064861 Z" id="Path" fill="#F1B282"></path>
            <path d="M5.85214867,138.222846 C5.32423009,137.808295 4.08731504,138.280398 2.56752212,140.382831 C1.0477292,142.485264 -0.181077876,143.340446 1.44411858,144.634458 C2.46482124,145.448275 8.14129735,149.011081 12.2205044,151.547849 C13.6943522,152.464179 16.3141257,151.893159 18.1330124,151.30865 C18.504177,151.18905 18.7996673,150.874315 18.8852513,150.507423 C18.9699345,150.140531 18.8275947,149.792524 18.5239965,149.621668 C15.1348673,147.716169 14.8609982,147.973353 13.4466088,144.633559 C12.9331044,143.420479 12.5520301,142.345882 12.059246,142.005068 C11.1025062,141.343224 9.95477876,141.997874 8.43678761,140.863028 C6.91879646,139.728181 6.76564602,138.939544 5.85214867,138.222846 Z" id="Path" fill="#0B224E"></path>
            <path d="M58.2440142,143.409688 C57.548531,143.304476 56.7656619,144.334111 56.6953929,146.945516 C56.6251239,149.556922 56.0737823,150.921076 58.2241947,151.261889 C60.0737115,151.555043 72.4167363,152.088295 75.8373965,152.231275 C76.1004549,152.242065 76.3554053,152.126962 76.5364832,151.914741 C76.7175611,151.702519 76.8067487,151.414761 76.7815239,151.124305 C76.6671115,149.84468 75.8662248,147.86904 72.1662903,147.246763 C69.4645363,146.571431 66.9862018,143.795463 65.778115,143.683058 C64.5700283,143.570652 63.9709398,144.718088 62.0052088,144.465401 C60.0394779,144.212713 59.4457947,143.591335 58.2440142,143.409688 Z" id="Path" fill="#0B224E"></path>
            <path d="M6.91969735,134.594395 C6.51610088,136.361411 8.59083894,137.436907 9.66649558,138.490821 C10.7421522,139.544736 14.6655062,142.950174 15.4943204,141.998773 C16.3231345,141.047373 16.2150283,139.87296 16.8105133,139.118494 C17.4059982,138.364028 19.0420053,137.994438 18.4393133,136.722907 C17.8366212,135.451375 15.8267469,134.910929 14.6105522,134.13668 C13.7213788,133.570156 11.2889894,130.154826 10.5763894,130.392227 C9.86378938,130.628728 9.78631327,131.948819 9.25389027,132.478474 C8.46201239,133.265312 7.23320531,133.223048 6.91969735,134.594395 Z" id="Path" fill="#355AA2"></path>
            <path d="M56.7314283,140.22996 C57.3097965,141.948416 59.6412867,141.786552 61.1097292,142.127365 C62.5781717,142.468179 67.7042071,143.333252 67.9150142,142.090496 C68.1249204,140.847741 67.4204283,139.900836 67.5348407,138.947637 C67.6492531,137.994438 68.8528354,136.828118 67.6744779,136.056567 C66.4961204,135.285015 64.4988584,135.868625 63.0565416,135.839849 C62.0016053,135.819166 58.143115,134.169053 57.6584389,134.741872 C57.1737628,135.31469 57.7971752,136.48101 57.6188,137.211196 C57.3539398,138.292987 56.2827876,138.89638 56.7314283,140.22996 Z" id="Path" fill="#355AA2"></path>
        </g>
        <g id="money_1" transform="translate(88.341593, 316.052897)" fill-rule="nonzero">
            <g id="Group" transform="translate(3.603540, 46.760705)">
                <rect id="Rectangle" fill="#FFD670" x="0.269364602" y="0.249989924" width="93.0893434" height="11.6146398"></rect>
                <rect id="Rectangle" fill="#FFC22C" x="0.269364602" y="11.865529" width="93.0893434" height="3.87124685"></rect>
                <rect id="Rectangle" fill="#FFEAB6" x="11.9060956" y="0.249989924" width="15.5150407" height="11.6146398"></rect>
                <rect id="Rectangle" fill="#FFCC4F" x="58.4503168" y="0.249989924" width="23.2725611" height="11.6146398"></rect>
            </g>
            <g id="Group" transform="translate(7.207080, 31.473552)">
                <rect id="Rectangle" fill="#FFD670" x="0.370263717" y="0.0503576826" width="93.0893434" height="11.6146398"></rect>
                <rect id="Rectangle" fill="#FFC22C" x="0.370263717" y="11.6658967" width="93.0893434" height="3.87124685"></rect>
                <rect id="Rectangle" fill="#FFEAB6" x="12.0060938" y="0.0503576826" width="15.5150407" height="11.6146398"></rect>
                <rect id="Rectangle" fill="#FFCC4F" x="58.5512159" y="0.0503576826" width="23.2725611" height="11.6146398"></rect>
            </g>
            <g id="Group" transform="translate(3.603540, 15.287154)">
                <rect id="Rectangle" fill="#FFD670" x="0" y="0.749969773" width="93.0893434" height="11.6146398"></rect>
                <rect id="Rectangle" fill="#FFC22C" x="0" y="12.3655088" width="93.0893434" height="3.87124685"></rect>
                <rect id="Rectangle" fill="#FFEAB6" x="11.6358301" y="0.749969773" width="15.5150407" height="11.6146398"></rect>
                <rect id="Rectangle" fill="#FFCC4F" x="58.1809522" y="0.749969773" width="23.2725611" height="11.6146398"></rect>
            </g>
            <g id="Group">
                <rect id="Rectangle" fill="#FFD670" x="0.675663717" y="0.550337531" width="93.0893434" height="11.6146398"></rect>
                <rect id="Rectangle" fill="#FFC22C" x="0.675663717" y="12.1658766" width="93.0893434" height="3.87124685"></rect>
                <rect id="Rectangle" fill="#FFEAB6" x="12.3114938" y="0.550337531" width="15.5150407" height="11.6146398"></rect>
                <rect id="Rectangle" fill="#FFCC4F" x="58.8566159" y="0.550337531" width="23.2725611" height="11.6146398"></rect>
            </g>
        </g>
        <g id="plant_21_" transform="translate(171.223009, 299.866499)" fill-rule="nonzero">
            <path d="M45.5325274,35.3447985 C50.8567575,43.7032746 78.7454531,70.0358463 83.3345611,64.7833602 C85.6011876,62.1881411 75.4040708,51.9727254 66.0745062,17.3725013 C62.802492,5.23719899 53.4053611,-3.44320655 44.3082248,2.93873048 C35.6272973,9.02751385 40.2082973,26.9863224 45.5325274,35.3447985 Z" id="Path" fill="#877CD8"></path>
            <path d="M84.1120248,65.7563426 C84.1606726,65.7464509 84.2048159,65.721272 84.2336442,65.6835038 C84.2949044,65.6052695 84.2687788,65.4991587 84.1750867,65.4470025 C83.9750903,65.3354962 63.9817504,53.8602393 50.7342372,14.1316247 C50.704508,14.0417003 50.6009062,13.9922418 50.4864938,14.0138237 C50.3792885,14.0399018 50.3180283,14.1343224 50.3486584,14.2251461 C57.2926796,35.0498463 66.0519841,47.9396146 72.1771009,55.0850101 C78.824731,62.8400932 83.9057221,65.7041864 83.9570726,65.7329622 C84.0039186,65.7599395 84.0606743,65.7671335 84.1120248,65.7563426 Z" id="Path" fill="#F3F9FF"></path>
            <path d="M43.492023,22.3597103 C54.4359735,30.2892469 87.3444,66.516204 81.4129735,73.9898237 C75.4815469,81.4634433 21.7284442,49.0969421 10.7844938,41.1665063 C-0.159456637,33.2369698 -2.62517876,20.9371058 5.39810265,15.9489975 C18.0456265,8.08690428 32.5480726,14.4301738 43.492023,22.3597103 Z" id="Path" fill="#9E95E3"></path>
            <path d="M82.5012425,75.2244861 C82.5273681,75.2190907 82.5534938,75.209199 82.5760159,75.1948111 C82.6643027,75.1381587 82.6823204,75.0311486 82.6156549,74.9556121 C82.536377,74.8665869 74.5905717,65.9173073 62.6493416,55.2378816 C51.6243115,45.3776675 34.8399239,31.9825239 17.4888796,24.161796 C17.3915841,24.1186322 17.2699646,24.1492065 17.2177133,24.2328363 C17.1654619,24.3155668 17.2032991,24.4189798 17.3014956,24.4639421 C34.6029912,32.2630882 51.3513434,45.6294559 62.3547522,55.4707859 C74.282469,66.1367229 82.2165628,75.0725139 82.2949398,75.161539 C82.3444885,75.2163929 82.426469,75.2388741 82.5012425,75.2244861 Z" id="Path" fill="#F3F9FF"></path>
            <path d="M40.0263186,51.3126801 C50.1729858,53.2127834 82.6093487,67.3632922 80.3823611,73.7083602 C78.1553735,80.0543275 30.5219823,79.3160479 20.375315,77.4159446 C10.2286478,75.5158413 2.55581062,70.770529 7.13500885,60.1396625 C11.3718708,50.3046272 29.8787504,49.4125768 40.0263186,51.3126801 Z" id="Path" fill="#877CD8"></path>
            <path d="M81.4823416,74.2515038 C81.5436018,74.2389144 81.5976549,74.2020453 81.6228796,74.1489899 C81.6643204,74.060864 81.6147717,73.9619471 81.5111699,73.9277758 C81.1841487,73.8153703 48.4622053,62.7636574 20.203246,62.6952471 C20.0915363,62.6926171 20.0014411,62.7708514 20.0014411,62.8661713 C20.0005469,62.9605919 20.0906354,63.0370277 20.2014442,63.0370277 C48.3838283,63.104471 81.0346018,74.1328035 81.3607221,74.2443098 C81.4012619,74.2568992 81.4427027,74.2586977 81.4823416,74.2515038 Z" id="Path" fill="#F3F9FF"></path>
        </g>
        <g id="plant_20_" transform="translate(386.534513, 232.423174)" fill-rule="nonzero">
            <path d="M7.22960177,125.935572 C7.40347257,127.196312 13.0033735,121.671355 18.8735398,127.052433 C24.7437062,132.432612 32.8561752,135.195091 36.2732319,134.180743 C39.6902885,133.166395 45.3640619,139.354995 53.977423,137.23098 C62.5907841,135.106965 63.1745575,130.042421 66.9988142,128.13872 C69.576246,126.855499 74.0509416,128.047897 83.5381611,121.874584 C98.8757274,111.89567 103.609878,97.1912267 108.847623,95.5411134 C115.342103,93.4953325 119.595181,98.6147305 119.595181,98.6147305 C119.595181,98.6147305 122.481616,96.4826222 111.617844,89.492796 C100.754073,82.5029698 101.772073,78.0058489 98.510869,76.0275113 C95.2496655,74.0491738 92.8298885,80.1217708 84.4534602,72.6139798 C76.0770319,65.1061889 77.9670885,75.3845516 65.7925292,68.6033501 C53.617069,61.8221486 34.784069,79.5453552 29.6066832,86.5639572 C18.3735487,101.789962 20.9428726,108.476743 12.6556319,119.017685 C8.48363363,124.324126 6.78816814,122.730665 7.22960177,125.935572 Z" id="Path" fill="#F3F9FF"></path>
            <path d="M0.881966372,123.504914 C9.65568496,117.829783 18.0149965,113.137526 25.912154,109.258186 C30.4769381,101.450048 37.7038372,88.1250453 46.7991717,82.0236725 C40.2947823,87.5333426 34.4660566,97.9474912 30.164331,107.227693 C37.3353752,103.897791 44.0983186,101.24502 50.4108195,99.1416877 C54.5359717,91.2903854 61.917823,81.1442116 68.7546389,77.5184584 C63.2871681,81.476932 57.7332124,90.3165038 54.2557965,97.9088237 C87.070531,87.825597 106.724237,92.7219824 106.724237,92.7219824 C92.3488159,92.0448514 76.8986389,95.0941889 62.3925894,99.6389698 C67.1402531,103.618126 72.9518619,107.962375 78.1211398,111.014411 C71.5798142,108.588249 63.6511257,104.369894 58.2305009,100.991433 C51.5306195,103.24494 45.082085,105.778111 39.0893982,108.366136 C41.182154,111.392992 44.4451593,115.341574 47.6964531,118.323469 C47.5189788,118.171496 48.6198602,119.340514 53.0792407,122.37906 C52.8233894,122.230685 42.9550956,117.980856 35.9354,109.750972 C15.9970142,118.652592 1.85582301,127.694494 1.85582301,127.694494 L0.881966372,123.504914 Z" id="Path" fill="#C4E2FE"></path>
            <path d="M41.7010637,95.3981335 C42.0091664,96.3018741 45.5784726,90.795801 50.8585593,93.4072065 C56.138646,96.0177128 62.7916814,96.1193275 65.2943398,94.5285642 C67.7969982,92.937801 73.0365451,96.2029572 79.404,92.5160554 C85.7714549,88.8300529 85.5255133,84.8877657 88.2200602,82.5299471 C90.0362442,80.9409824 93.6605044,80.7485441 100.145975,73.8117733 C110.631375,62.5981965 112.266481,50.4152343 116.088936,47.9045441 C120.828492,44.7913602 124.823016,47.5997003 124.823016,47.5997003 C124.823016,47.5997003 126.76172,45.298534 117.397922,42.6934232 C108.035025,40.0883123 108.202589,36.4670554 105.408044,35.7746373 C102.613499,35.0822191 101.579283,40.226796 94.0677044,36.6289194 C86.5561257,33.0310428 89.4344531,40.2834484 79.0859876,38.1531385 C68.7375221,36.0228287 56.6170159,53.8971083 53.5801327,60.4202267 C46.9919611,74.5734332 49.8991168,78.9662418 44.9433487,88.889403 C42.4487982,93.8847053 40.9172938,93.1005642 41.7010637,95.3981335 Z" id="Path" fill="#DCEEFD"></path>
            <path d="M68.9167982,52.8404962 C64.6448018,58.5569924 61.5718832,67.7922317 59.5232708,75.8027003 C64.6105681,71.5609647 69.4717434,67.9298161 74.0644549,64.8175315 C76.1716248,57.9239244 80.4841611,48.5097355 85.2732655,44.1259194 C81.5895469,48.4252065 78.5130248,56.4104962 76.8698106,62.9524987 C100.85317,47.4153552 116.726763,46.3092846 116.726763,46.3092846 C105.517952,49.2938766 93.9911292,55.3358992 83.4003257,62.2699723 C87.6191699,64.1026322 92.7109717,65.9496801 97.1289115,66.9838111 C91.7353133,66.7527053 85.0255221,65.5135466 80.3688478,64.2959698 C75.5004655,67.6132821 70.8636106,71.079869 66.5880106,74.4763149 C68.6231097,76.2406322 71.6789115,78.4096096 74.6094903,79.8609899 C74.4509345,79.7908489 75.4635292,80.3996373 79.3301274,81.5965315 C79.1121133,81.547073 70.9014478,80.7503426 64.3403027,76.2819975 C50.1468602,87.8067128 40.4542389,98.0293224 40.4542389,98.0293224 L39.1236319,95.1220655 C45.1253274,88.7320353 50.9351345,83.2034811 56.5080088,78.3736398 C58.9629204,71.407194 62.716908,59.6351864 68.9167982,52.8404962 Z" id="Path" fill="#B8DDFE"></path>
            <path d="M44.6388496,83.8608287 C45.3415398,84.5082846 45.8442336,77.9689798 51.7324177,77.7468665 C57.6206018,77.5247531 63.515092,74.4430428 64.9529044,71.8523199 C66.3907168,69.261597 72.5563735,69.6329849 76.3878372,63.3589572 C80.2193009,57.0849295 78.1175363,53.7388413 79.3580549,50.3828615 C80.1940761,48.121262 83.2859133,46.2247557 85.6669522,37.0380756 C89.5155327,22.1879547 85.1246195,10.7046045 87.2822389,6.67688917 C89.9578673,1.68248615 94.8100336,2.24631234 94.8100336,2.24631234 C94.8100336,2.24631234 95.4127257,-0.699612091 85.9399204,1.47386146 C76.467115,3.64733501 74.8815575,0.385775819 72.0960212,1.10876826 C69.3095841,1.83176071 70.8618088,6.8459471 62.5403345,7.26409572 C54.2197611,7.68224433 60.2169522,12.6829421 50.1054195,15.7439698 C39.9938867,18.8040982 37.8939239,40.2861461 38.3461681,47.4657128 C39.3272319,63.0415239 43.9839062,65.5162443 44.3748903,76.5958338 C44.5721841,82.1747456 42.8523947,82.2161108 44.6388496,83.8608287 Z" id="Path" fill="#F3F9FF"></path>
            <path d="M48.1955434,33.4968514 C47.1757416,40.5550202 48.8937292,50.13467 50.9252248,58.1496348 C53.3657221,51.9988035 55.9008124,46.490932 58.4467133,41.5675693 C57.0007929,34.5058035 56.2863912,24.1797809 58.3980655,18.045136 C57.2179062,23.5781864 58.3341027,32.0607582 60.0196584,38.5919698 C73.6608584,13.5102469 87.0795398,4.97192191 87.0795398,4.97192191 C78.6580673,12.936529 71.4203575,23.7391511 65.4321752,34.8789899 C70.0158779,34.477927 75.3734407,33.6740025 79.7499398,32.4771083 C74.9004761,34.8439194 68.4123027,36.9535466 63.7376106,38.1027809 C61.0466673,43.3381814 58.6313947,48.5933652 56.499,53.6156448 C59.130485,54.1965567 62.8538425,54.6452796 66.123154,54.5238816 C65.9501841,54.5373703 67.1312442,54.5904257 71.1014442,53.7990907 C70.8861327,53.8593401 63.2907717,57.0723401 55.3882088,56.2738111 C48.4297735,73.1643174 44.8037115,86.7662872 44.8037115,86.7662872 L42.2433965,84.8455013 C44.4604743,76.3701234 46.9207912,68.7436322 49.506331,61.8446297 C48.331577,54.5544559 45.998285,42.4218514 48.1955434,33.4968514 Z" id="Path" fill="#B8DDFE"></path>
        </g>
        <g id="money_2" transform="translate(221.672566, 208.143577)" fill-rule="nonzero">
            <g id="Group" transform="translate(0.000000, 154.670025)">
                <rect id="Rectangle" fill="#FFD670" x="0.675663717" y="0.249989924" width="93.0893434" height="11.6146398"></rect>
                <rect id="Rectangle" fill="#FFC22C" x="0.675663717" y="11.865529" width="93.0893434" height="3.87124685"></rect>
                <rect id="Rectangle" fill="#FFEAB6" x="12.3114938" y="0.249989924" width="15.5150407" height="11.6146398"></rect>
                <rect id="Rectangle" fill="#FFCC4F" x="58.8566159" y="0.249989924" width="23.2725611" height="11.6146398"></rect>
            </g>
            <g id="Group" transform="translate(12.612389, 15.287154)">
                <rect id="Rectangle" fill="#FFD670" x="0.363957522" y="0.252687657" width="93.0893434" height="11.6146398"></rect>
                <rect id="Rectangle" fill="#FFC22C" x="0.363957522" y="11.8682267" width="93.0893434" height="3.87124685"></rect>
                <rect id="Rectangle" fill="#FFEAB6" x="11.9997876" y="0.252687657" width="15.5150407" height="11.6146398"></rect>
                <rect id="Rectangle" fill="#FFCC4F" x="58.5449097" y="0.252687657" width="23.2725611" height="11.6146398"></rect>
            </g>
            <g id="Group" transform="translate(9.008850, 30.574307)">
                <rect id="Rectangle" fill="#FFD670" x="0.436929204" y="0.452319899" width="93.0893434" height="11.6146398"></rect>
                <rect id="Rectangle" fill="#FFC22C" x="0.436929204" y="12.0669597" width="93.0893434" height="3.87124685"></rect>
                <rect id="Rectangle" fill="#FFEAB6" x="12.0727593" y="0.452319899" width="15.5150407" height="11.6146398"></rect>
                <rect id="Rectangle" fill="#FFCC4F" x="58.6178814" y="0.452319899" width="23.2725611" height="11.6146398"></rect>
            </g>
            <g id="Group" transform="translate(8.107965, 0.000000)">
                <rect id="Rectangle" fill="#FFD670" x="0.771157522" y="0.0530554156" width="93.0893434" height="11.6146398"></rect>
                <rect id="Rectangle" fill="#FFC22C" x="0.771157522" y="11.6685945" width="93.0893434" height="3.87124685"></rect>
                <rect id="Rectangle" fill="#FFEAB6" x="12.4078885" y="0.0530554156" width="15.5150407" height="11.6146398"></rect>
                <rect id="Rectangle" fill="#FFCC4F" x="58.9521097" y="0.0530554156" width="23.2725611" height="11.6146398"></rect>
            </g>
            <g id="Group" transform="translate(3.603540, 139.382872)">
                <rect id="Rectangle" fill="#FFD670" x="0.776562832" y="0.0503576826" width="93.0893434" height="11.6146398"></rect>
                <rect id="Rectangle" fill="#FFC22C" x="0.776562832" y="11.6658967" width="93.0893434" height="3.87124685"></rect>
                <rect id="Rectangle" fill="#FFEAB6" x="12.4123929" y="0.0503576826" width="15.5150407" height="11.6146398"></rect>
                <rect id="Rectangle" fill="#FFCC4F" x="58.957515" y="0.0503576826" width="23.2725611" height="11.6146398"></rect>
            </g>
            <g id="Group" transform="translate(8.107965, 107.909320)">
                <rect id="Rectangle" fill="#FFD670" x="0.730617699" y="0.550337531" width="93.0893434" height="11.6146398"></rect>
                <rect id="Rectangle" fill="#FFC22C" x="0.730617699" y="12.1658766" width="93.0893434" height="3.87124685"></rect>
                <rect id="Rectangle" fill="#FFEAB6" x="12.3664478" y="0.550337531" width="15.5150407" height="11.6146398"></rect>
                <rect id="Rectangle" fill="#FFCC4F" x="58.9115699" y="0.550337531" width="23.2725611" height="11.6146398"></rect>
            </g>
            <g id="Group" transform="translate(3.603540, 92.622166)">
                <rect id="Rectangle" fill="#FFD670" x="0.519810619" y="0.351604534" width="93.0893434" height="11.6146398"></rect>
                <rect id="Rectangle" fill="#FFC22C" x="0.519810619" y="11.9662443" width="93.0893434" height="3.87124685"></rect>
                <rect id="Rectangle" fill="#FFEAB6" x="12.1565416" y="0.351604534" width="15.5150407" height="11.6146398"></rect>
                <rect id="Rectangle" fill="#FFCC4F" x="58.7007628" y="0.351604534" width="23.2725611" height="11.6146398"></rect>
            </g>
            <g id="Group" transform="translate(4.504425, 77.335013)">
                <rect id="Rectangle" fill="#FFD670" x="0.281076106" y="0.151972292" width="93.0893434" height="11.6146398"></rect>
                <rect id="Rectangle" fill="#FFC22C" x="0.281076106" y="11.7666121" width="93.0893434" height="3.87124685"></rect>
                <rect id="Rectangle" fill="#FFEAB6" x="11.9169062" y="0.151972292" width="15.5150407" height="11.6146398"></rect>
                <rect id="Rectangle" fill="#FFCC4F" x="58.4620283" y="0.151972292" width="23.2725611" height="11.6146398"></rect>
            </g>
            <g id="Group" transform="translate(6.306195, 61.148615)">
                <rect id="Rectangle" fill="#FFD670" x="0.50539646" y="0.851584383" width="93.0893434" height="11.6146398"></rect>
                <rect id="Rectangle" fill="#FFC22C" x="0.50539646" y="12.4662242" width="93.0893434" height="3.87124685"></rect>
                <rect id="Rectangle" fill="#FFEAB6" x="12.1421274" y="0.851584383" width="15.5150407" height="11.6146398"></rect>
                <rect id="Rectangle" fill="#FFCC4F" x="58.6863487" y="0.851584383" width="23.2725611" height="11.6146398"></rect>
            </g>
            <g id="Group" transform="translate(10.810619, 45.861461)">
                <rect id="Rectangle" fill="#FFD670" x="0.274769912" y="0.651952141" width="93.0893434" height="11.6146398"></rect>
                <rect id="Rectangle" fill="#FFC22C" x="0.274769912" y="12.2665919" width="93.0893434" height="3.87124685"></rect>
                <rect id="Rectangle" fill="#FFEAB6" x="11.9115009" y="0.651952141" width="15.5150407" height="11.6146398"></rect>
                <rect id="Rectangle" fill="#FFCC4F" x="58.4557221" y="0.651952141" width="23.2725611" height="11.6146398"></rect>
            </g>
            <g id="Group" transform="translate(4.504425, 123.196474)">
                <rect id="Rectangle" fill="#FFD670" x="0.629718584" y="0.749969773" width="93.0893434" height="11.6146398"></rect>
                <rect id="Rectangle" fill="#FFC22C" x="0.629718584" y="12.3655088" width="93.0893434" height="3.87124685"></rect>
                <rect id="Rectangle" fill="#FFEAB6" x="12.2664496" y="0.749969773" width="15.5150407" height="11.6146398"></rect>
                <rect id="Rectangle" fill="#FFCC4F" x="58.8106708" y="0.749969773" width="23.2725611" height="11.6146398"></rect>
            </g>
        </g>
        <g id="plant_19_" transform="translate(296.446018, 274.687657)" fill-rule="nonzero">
            <path d="M37.6569912,67.4649068 C47.0703381,68.705864 82.8823168,85.8463602 81.361623,94.5123778 C80.610285,98.7936801 67.0618761,92.8838463 35.1345133,102.878048 C23.9374142,106.383302 12.0196071,100.490554 11.915559,85.7699244 C11.816908,71.7219295 28.2436442,66.2248489 37.6569912,67.4649068 Z" id="Path" fill="#1B90FB"></path>
            <path d="M82.4381805,95.0447305 C82.3868301,95.0600176 82.3291735,95.0501259 82.285931,95.0123577 C82.2363823,94.969194 77.2490832,90.7076751 67.6258301,87.5450327 C58.7431044,84.6260856 43.9803027,82.0740302 24.0968708,86.4920176 C24.0103858,86.511801 23.9239009,86.4569471 23.9049823,86.3706196 C23.8860637,86.2833929 23.9356124,86.1898715 24.0275027,86.1790806 C43.992915,81.7431083 58.8214814,84.3104509 67.7456478,87.2464836 C77.4247558,90.4307078 82.4480903,94.7272972 82.4985398,94.770461 C82.5652053,94.8289118 82.5724124,94.9305264 82.5138549,94.9970705 C82.4922336,95.0195516 82.466108,95.0366373 82.4381805,95.0447305 Z" id="Path" fill="#F3F9FF"></path>
            <path d="M26.4842159,72.9538942 C38.6785947,81.1460101 84.9237221,98.2289547 87.4182726,86.6098186 C89.912823,74.9906826 35.1083876,30.7406675 22.9140088,22.5485516 C10.7196301,14.3564358 -0.158555752,18.9218992 0.427920354,31.5149169 C1.35132743,51.3666348 14.2898372,64.7617783 26.4842159,72.9538942 Z" id="Path" fill="#1277D7"></path>
            <path d="M88.8677965,87.3543929 C88.8362655,87.3642846 88.801131,87.3642846 88.7677982,87.3516952 C88.3173558,87.1934282 43.3767097,71.1949723 13.4249876,40.8113048 C13.3628265,40.7483577 13.3637274,40.6458438 13.4267894,40.583796 C13.4898513,40.5208489 13.5925522,40.5226474 13.6547133,40.5855945 C43.5532832,70.9153073 88.4245611,86.8903829 88.8741027,87.0486499 C88.957885,87.0774257 89.0020283,87.1691486 88.9722991,87.2527783 C88.9551823,87.3040353 88.9146425,87.340005 88.8677965,87.3543929 Z" id="Path" fill="#F3F9FF"></path>
            <path d="M46.9559257,51.172398 C54.0449894,62.0928212 82.9543876,92.0763249 86.6290973,85.555005 C90.3038071,79.0345844 63.3502301,22.7814559 56.2602655,11.8601335 C49.1712018,0.939710327 41.2515221,-5.3001461 35.5660372,6.63462469 C30.3057699,17.6764458 39.8668619,40.2519748 46.9559257,51.172398 Z" id="Path" fill="#1B90FB"></path>
            <path d="M87.5507027,86.7339144 C87.4903434,86.7518992 87.422777,86.7339144 87.3804354,86.6826574 C87.1128726,86.3616272 60.4574885,54.1677809 44.7658743,20.5962922 C44.7280372,20.5162594 44.7631717,20.4209395 44.8442513,20.3831713 C44.9217274,20.3436045 45.0199239,20.3804736 45.0577611,20.4605063 C60.7322584,53.9951259 87.3615168,86.1565995 87.6281788,86.4776297 C87.6849345,86.5459723 87.6750248,86.6466877 87.6074584,86.7033401 C87.5903416,86.717728 87.5705221,86.7276196 87.5507027,86.7339144 Z" id="Path" fill="#F3F9FF"></path>
        </g>
        <g id="money_3" transform="translate(348.697345, 146.095718)" fill-rule="nonzero">
            <g id="Group" transform="translate(3.603540, 216.717884)">
                <rect id="Rectangle" fill="#FFD670" x="0.449541593" y="0.249989924" width="93.0893434" height="11.6146398"></rect>
                <rect id="Rectangle" fill="#FFC22C" x="0.449541593" y="11.865529" width="93.0893434" height="3.87124685"></rect>
                <rect id="Rectangle" fill="#FFEAB6" x="12.0862726" y="0.249989924" width="15.5150407" height="11.6146398"></rect>
                <rect id="Rectangle" fill="#FFCC4F" x="58.6304938" y="0.249989924" width="23.2725611" height="11.6146398"></rect>
            </g>
            <g id="Group" transform="translate(7.207080, 201.430730)">
                <rect id="Rectangle" fill="#FFD670" x="0.550440708" y="0.0503576826" width="93.0893434" height="11.6146398"></rect>
                <rect id="Rectangle" fill="#FFC22C" x="0.550440708" y="11.6658967" width="93.0893434" height="3.87124685"></rect>
                <rect id="Rectangle" fill="#FFEAB6" x="12.1862708" y="0.0503576826" width="15.5150407" height="11.6146398"></rect>
                <rect id="Rectangle" fill="#FFCC4F" x="58.7313929" y="0.0503576826" width="23.2725611" height="11.6146398"></rect>
            </g>
            <g id="Group" transform="translate(3.603540, 169.957179)">
                <rect id="Rectangle" fill="#FFD670" x="0.100899115" y="0.550337531" width="93.0893434" height="11.6146398"></rect>
                <rect id="Rectangle" fill="#FFC22C" x="0.100899115" y="12.1658766" width="93.0893434" height="3.87124685"></rect>
                <rect id="Rectangle" fill="#FFEAB6" x="11.7367292" y="0.550337531" width="15.5150407" height="11.6146398"></rect>
                <rect id="Rectangle" fill="#FFCC4F" x="58.2818513" y="0.550337531" width="23.2725611" height="11.6146398"></rect>
            </g>
            <g id="Group" transform="translate(3.603540, 185.244332)">
                <rect id="Rectangle" fill="#FFD670" x="0.449541593" y="0.749969773" width="93.0893434" height="11.6146398"></rect>
                <rect id="Rectangle" fill="#FFC22C" x="0.449541593" y="12.3655088" width="93.0893434" height="3.87124685"></rect>
                <rect id="Rectangle" fill="#FFEAB6" x="12.0862726" y="0.749969773" width="15.5150407" height="11.6146398"></rect>
                <rect id="Rectangle" fill="#FFCC4F" x="58.6304938" y="0.749969773" width="23.2725611" height="11.6146398"></rect>
            </g>
            <g id="Group" transform="translate(0.000000, 154.670025)">
                <rect id="Rectangle" fill="#FFD670" x="0" y="0.351604534" width="93.0893434" height="11.6146398"></rect>
                <rect id="Rectangle" fill="#FFC22C" x="0" y="11.9662443" width="93.0893434" height="3.87124685"></rect>
                <rect id="Rectangle" fill="#FFEAB6" x="11.6358301" y="0.351604534" width="15.5150407" height="11.6146398"></rect>
                <rect id="Rectangle" fill="#FFCC4F" x="58.1809522" y="0.351604534" width="23.2725611" height="11.6146398"></rect>
            </g>
            <g id="Group" transform="translate(3.603540, 15.287154)">
                <rect id="Rectangle" fill="#FFD670" x="0.100899115" y="0.354302267" width="93.0893434" height="11.6146398"></rect>
                <rect id="Rectangle" fill="#FFC22C" x="0.100899115" y="11.9689421" width="93.0893434" height="3.87124685"></rect>
                <rect id="Rectangle" fill="#FFEAB6" x="11.7367292" y="0.354302267" width="15.5150407" height="11.6146398"></rect>
                <rect id="Rectangle" fill="#FFCC4F" x="58.2818513" y="0.354302267" width="23.2725611" height="11.6146398"></rect>
            </g>
            <g id="Group" transform="translate(3.603540, 30.574307)">
                <rect id="Rectangle" fill="#FFD670" x="0.449541593" y="0.553035264" width="93.0893434" height="11.6146398"></rect>
                <rect id="Rectangle" fill="#FFC22C" x="0.449541593" y="12.1685743" width="93.0893434" height="3.87124685"></rect>
                <rect id="Rectangle" fill="#FFEAB6" x="12.0862726" y="0.553035264" width="15.5150407" height="11.6146398"></rect>
                <rect id="Rectangle" fill="#FFCC4F" x="58.6304938" y="0.553035264" width="23.2725611" height="11.6146398"></rect>
            </g>
            <g id="Group">
                <rect id="Rectangle" fill="#FFD670" x="0" y="0.154670025" width="93.0893434" height="11.6146398"></rect>
                <rect id="Rectangle" fill="#FFC22C" x="0" y="11.7693098" width="93.0893434" height="3.87124685"></rect>
                <rect id="Rectangle" fill="#FFEAB6" x="11.6358301" y="0.154670025" width="15.5150407" height="11.6146398"></rect>
                <rect id="Rectangle" fill="#FFCC4F" x="58.1809522" y="0.154670025" width="23.2725611" height="11.6146398"></rect>
            </g>
            <g id="Group" transform="translate(3.603540, 139.382872)">
                <rect id="Rectangle" fill="#FFD670" x="0.100899115" y="0.151972292" width="93.0893434" height="11.6146398"></rect>
                <rect id="Rectangle" fill="#FFC22C" x="0.100899115" y="11.7666121" width="93.0893434" height="3.87124685"></rect>
                <rect id="Rectangle" fill="#FFEAB6" x="11.7367292" y="0.151972292" width="15.5150407" height="11.6146398"></rect>
                <rect id="Rectangle" fill="#FFCC4F" x="58.2818513" y="0.151972292" width="23.2725611" height="11.6146398"></rect>
            </g>
            <g id="Group" transform="translate(8.107965, 107.909320)">
                <rect id="Rectangle" fill="#FFD670" x="0.0549539823" y="0.651952141" width="93.0893434" height="11.6146398"></rect>
                <rect id="Rectangle" fill="#FFC22C" x="0.0549539823" y="12.2665919" width="93.0893434" height="3.87124685"></rect>
                <rect id="Rectangle" fill="#FFEAB6" x="11.6907841" y="0.651952141" width="15.5150407" height="11.6146398"></rect>
                <rect id="Rectangle" fill="#FFCC4F" x="58.2359062" y="0.651952141" width="23.2725611" height="11.6146398"></rect>
            </g>
            <g id="Group" transform="translate(9.909735, 92.622166)">
                <rect id="Rectangle" fill="#FFD670" x="0.280175221" y="0.452319899" width="93.0893434" height="11.6146398"></rect>
                <rect id="Rectangle" fill="#FFC22C" x="0.280175221" y="12.0669597" width="93.0893434" height="3.87124685"></rect>
                <rect id="Rectangle" fill="#FFEAB6" x="11.9160053" y="0.452319899" width="15.5150407" height="11.6146398"></rect>
                <rect id="Rectangle" fill="#FFCC4F" x="58.4611274" y="0.452319899" width="23.2725611" height="11.6146398"></rect>
            </g>
            <g id="Group" transform="translate(3.603540, 77.335013)">
                <rect id="Rectangle" fill="#FFD670" x="0.506297345" y="0.252687657" width="93.0893434" height="11.6146398"></rect>
                <rect id="Rectangle" fill="#FFC22C" x="0.506297345" y="11.8682267" width="93.0893434" height="3.87124685"></rect>
                <rect id="Rectangle" fill="#FFEAB6" x="12.1421274" y="0.252687657" width="15.5150407" height="11.6146398"></rect>
                <rect id="Rectangle" fill="#FFCC4F" x="58.6872496" y="0.252687657" width="23.2725611" height="11.6146398"></rect>
            </g>
            <g id="Group" transform="translate(5.405310, 62.047859)">
                <rect id="Rectangle" fill="#FFD670" x="0.730617699" y="0.0530554156" width="93.0893434" height="11.6146398"></rect>
                <rect id="Rectangle" fill="#FFC22C" x="0.730617699" y="11.6685945" width="93.0893434" height="3.87124685"></rect>
                <rect id="Rectangle" fill="#FFEAB6" x="12.3673487" y="0.0530554156" width="15.5150407" height="11.6146398"></rect>
                <rect id="Rectangle" fill="#FFCC4F" x="58.9115699" y="0.0530554156" width="23.2725611" height="11.6146398"></rect>
            </g>
            <g id="Group" transform="translate(8.107965, 45.861461)">
                <rect id="Rectangle" fill="#FFD670" x="0.0549539823" y="0.752667506" width="93.0893434" height="11.6146398"></rect>
                <rect id="Rectangle" fill="#FFC22C" x="0.0549539823" y="12.3682065" width="93.0893434" height="3.87124685"></rect>
                <rect id="Rectangle" fill="#FFEAB6" x="11.6907841" y="0.752667506" width="15.5150407" height="11.6146398"></rect>
                <rect id="Rectangle" fill="#FFCC4F" x="58.2359062" y="0.752667506" width="23.2725611" height="11.6146398"></rect>
            </g>
            <g id="Group" transform="translate(3.603540, 123.196474)">
                <rect id="Rectangle" fill="#FFD670" x="0.854939823" y="0.851584383" width="93.0893434" height="11.6146398"></rect>
                <rect id="Rectangle" fill="#FFC22C" x="0.854939823" y="12.4662242" width="93.0893434" height="3.87124685"></rect>
                <rect id="Rectangle" fill="#FFEAB6" x="12.4916708" y="0.851584383" width="15.5150407" height="11.6146398"></rect>
                <rect id="Rectangle" fill="#FFCC4F" x="59.035892" y="0.851584383" width="23.2725611" height="11.6146398"></rect>
            </g>
        </g>
        <g id="ladder" transform="translate(416.263717, 252.206549)" fill-rule="nonzero">
            <g id="Group" transform="translate(0.000000, 4.496222)" fill="#183168">
                <path d="M1.94681239,122.014866 L1.94681239,122.014866 C3.11526018,122.42672 4.39631858,121.815234 4.80892389,120.649814 L46.3325133,3.34159194 C46.7451186,2.17527204 46.1325168,0.896546599 44.9649699,0.484692695 L44.9649699,0.484692695 C43.7965221,0.0728387909 42.5154637,0.684324937 42.1028584,1.84974559 L0.580169912,119.157967 C0.166663717,120.324287 0.779265487,121.603013 1.94681239,122.014866 Z" id="Path"></path>
                <path d="M32.6985204,122.014866 L32.6985204,122.014866 C33.8669681,122.42672 35.1480265,121.815234 35.5606319,120.649814 L77.0842212,3.34159194 C77.4968265,2.17527204 76.8842248,0.896546599 75.7166779,0.484692695 L75.7166779,0.484692695 C74.5482301,0.0728387909 73.2671717,0.684324937 72.8545664,1.84974559 L31.330977,119.157967 C30.9183717,120.324287 31.5300726,121.603013 32.6985204,122.014866 Z" id="Path"></path>
                <polygon id="Rectangle" transform="translate(55.417127, 14.009957) rotate(-180.000000) translate(-55.417127, -14.009957) " points="39.0885874 11.9866572 71.7456671 11.9866572 71.7456671 16.0332567 39.0885874 16.0332567"></polygon>
                <polygon id="Rectangle" transform="translate(46.858720, 38.514365) rotate(-180.000000) translate(-46.858720, -38.514365) " points="30.5301804 36.4910652 63.18726 36.4910652 63.18726 40.5376647 30.5301804 40.5376647"></polygon>
                <polygon id="Rectangle" transform="translate(38.300313, 63.018773) rotate(-180.000000) translate(-38.300313, -63.018773) " points="21.9717733 60.9954733 54.6288529 60.9954733 54.6288529 65.0420728 21.9717733 65.0420728"></polygon>
                <polygon id="Rectangle" transform="translate(29.741906, 87.523181) rotate(-180.000000) translate(-29.741906, -87.523181) " points="13.4133662 85.4998813 46.0704459 85.4998813 46.0704459 89.5464808 13.4133662 89.5464808"></polygon>
                <polygon id="Rectangle" transform="translate(21.183499, 112.027589) rotate(-180.000000) translate(-21.183499, -112.027589) " points="4.85495913 110.004289 37.5120388 110.004289 37.5120388 114.050889 4.85495913 114.050889"></polygon>
            </g>
            <g id="Group" transform="translate(60.359292, 4.496222)" fill="#224380">
                <path d="M75.2968655,122.014866 L75.2968655,122.014866 C74.1284177,122.42672 72.8473593,121.815234 72.434754,120.649814 L30.9120655,3.34159194 C30.4994602,2.17527204 31.1120619,0.896546599 32.2796088,0.484692695 L32.2796088,0.484692695 C33.4480566,0.0728387909 34.729115,0.684324937 35.1417204,1.84974559 L76.6644088,119.157967 C77.0770142,120.324287 76.4653133,121.603013 75.2968655,122.014866 Z" id="Path"></path>
                <path d="M44.5451575,122.014866 L44.5451575,122.014866 C43.3767097,122.42672 42.0956513,121.815234 41.683046,120.649814 L0.159456637,3.34159194 C-0.253148673,2.17527204 0.359453097,0.896546599 1.527,0.484692695 L1.527,0.484692695 C2.69544779,0.0728387909 3.97650619,0.684324937 4.3891115,1.84974559 L45.9127009,119.157967 C46.3253062,120.324287 45.7136053,121.603013 44.5451575,122.014866 Z" id="Path"></path>
                <rect id="Rectangle" x="5.49810088" y="11.9860277" width="32.6570796" height="4.0465995"></rect>
                <rect id="Rectangle" x="14.056508" y="36.4904358" width="32.6570796" height="4.0465995"></rect>
                <rect id="Rectangle" x="22.614915" y="60.9948438" width="32.6570796" height="4.0465995"></rect>
                <rect id="Rectangle" x="31.1733221" y="85.4992519" width="32.6570796" height="4.0465995"></rect>
                <rect id="Rectangle" x="39.7317292" y="110.00366" width="32.6570796" height="4.0465995"></rect>
            </g>
            <path d="M98.0036708,8.2271864 L41.0695434,8.2271864 C39.004715,8.2271864 37.3299699,6.55639043 37.3299699,4.49442317 L37.3299699,4.49442317 C37.3299699,2.43335516 39.0038142,0.76165995 41.0695434,0.76165995 L98.0036708,0.76165995 C100.068499,0.76165995 101.743244,2.43245592 101.743244,4.49442317 L101.743244,4.49442317 C101.743244,6.55549118 100.0694,8.2271864 98.0036708,8.2271864 Z" id="Path" fill="#224380"></path>
        </g>
        <g id="chevron_arrow_3_" transform="translate(516.261947, 51.675063)" fill-rule="nonzero">
            <polygon id="Path" fill="#F3F9FF" points="19.4771327 71.3865113 38.503823 90.3776524 38.503823 103.86272 19.4771327 84.8706801 0.450442478 103.86272 0.450442478 90.3776524"></polygon>
            <polygon id="Path" fill="#E7F4FE" points="19.4771327 47.646461 38.503823 66.6385013 38.503823 80.12267 19.4771327 61.1306297 0.450442478 80.12267 0.450442478 66.6385013"></polygon>
            <polygon id="Path" fill="#DCEEFD" points="19.4771327 23.9064106 38.503823 42.8984509 38.503823 56.3826196 19.4771327 37.3914786 0.450442478 56.3826196 0.450442478 42.8984509"></polygon>
            <polygon id="Path" fill="#D0E7FE" points="19.4771327 0.166360202 38.503823 19.1584005 38.503823 32.6434685 19.4771327 13.6514282 0.450442478 32.6434685 0.450442478 19.1584005"></polygon>
        </g>
        <g id="paperplane_2_" transform="translate(54.107965, 61.566751)" fill-rule="nonzero">
            <path d="M35.2552319,74.4124685 C33.7444478,74.4124685 32.1949257,74.3791965 30.6490071,74.3135516 C30.3454088,74.3009622 30.1102779,74.0446776 30.1228903,73.7425315 C30.1355027,73.4394861 30.4174796,73.1966902 30.6949522,73.2173728 C32.2255558,73.2821184 33.7597628,73.3144912 35.254331,73.3144912 L36.1642248,73.309995 C36.1660265,73.309995 36.1678283,73.309995 36.1687292,73.309995 C36.4705257,73.309995 36.7155664,73.5527909 36.7182913,73.8540378 C36.7209717,74.1570831 36.4768319,74.4052746 36.1732336,74.4079723 L35.2552319,74.4124685 Z M41.6623257,74.2083401 C41.3740425,74.2083401 41.1326053,73.9853275 41.1136867,73.6948715 C41.0947681,73.3918262 41.3244938,73.1310453 41.6271912,73.111262 C43.4559876,72.993461 45.285685,72.820806 47.0649327,72.5968942 C47.3703327,72.5618237 47.6414991,72.7722469 47.6793363,73.0725945 C47.7171735,73.3729421 47.5036637,73.6481108 47.2027681,73.6858791 C45.4009982,73.9124887 43.5487788,74.0869421 41.6983611,74.2065416 C41.6857487,74.2074408 41.6740372,74.2083401 41.6623257,74.2083401 Z M25.1869416,73.9502569 C25.1707257,73.9502569 25.1536088,73.9493577 25.1373929,73.9484584 C23.3320195,73.7856952 21.4861062,73.5797683 19.6501027,73.3333753 C19.3492071,73.2929093 19.1374991,73.0168413 19.1780389,72.7164937 C19.2185788,72.4161461 19.4942496,72.2039244 19.796046,72.2452897 C21.6158336,72.4889849 23.4464319,72.6940126 25.2355894,72.8549773 C25.5382867,72.8819547 25.7617062,73.1490302 25.7337788,73.4511763 C25.708554,73.7353375 25.4680177,73.9502569 25.1869416,73.9502569 Z M52.560331,72.828 C52.301777,72.828 52.0720513,72.6454534 52.0216018,72.3837733 C51.9639451,72.0861234 52.1585363,71.7983652 52.4567292,71.7408136 C54.2621027,71.3910076 56.0503593,70.9782544 57.7719504,70.5133451 C58.0629363,70.4351108 58.3674354,70.6068665 58.4467133,70.9000202 C58.5259912,71.1922746 58.3521204,71.4935214 58.0593327,71.5735542 C56.3125168,72.0447582 54.4981345,72.463806 52.6666354,72.8181083 C52.6296991,72.824403 52.5945646,72.828 52.560331,72.828 Z M14.2889363,72.4979773 C14.2574053,72.4979773 14.2258743,72.4952796 14.1934425,72.4898841 C12.4132938,72.1787456 10.5908035,71.8244433 8.77642124,71.436869 C8.4791292,71.3739219 8.28994336,71.0816675 8.35390619,70.7858161 C8.41696814,70.4890655 8.70975575,70.2966272 9.0061469,70.3640705 C10.8070159,70.7480479 12.6168938,71.0996524 14.3835292,71.4080932 C14.682623,71.4602494 14.8826195,71.7453098 14.8303681,72.0438589 C14.7835221,72.3100353 14.5510938,72.4979773 14.2889363,72.4979773 Z M3.53597345,70.207602 C3.49183009,70.207602 3.44678584,70.2022065 3.40174159,70.1914156 C2.46842478,69.9585113 1.527,69.7148161 0.577467257,69.46033 C0.283778761,69.3811965 0.109907965,69.0808489 0.188284956,68.7885945 C0.267562832,68.4963401 0.570260177,68.3236851 0.861246018,68.4001209 C1.80537345,68.6528086 2.74049204,68.8947053 3.66840354,69.1267103 C3.96299292,69.2004484 4.14226903,69.4980982 4.06749558,69.7921511 C4.0062354,70.0412418 3.78191504,70.207602 3.53597345,70.207602 Z M63.1592425,69.9549144 C62.9331204,69.9549144 62.7214124,69.8146322 62.6412336,69.5907204 C62.5385327,69.3047607 62.6880796,68.9918237 62.9745611,68.8893098 C64.7024584,68.2742267 66.4006265,67.5854055 68.0222195,66.8444282 C68.2978903,66.7167355 68.6240106,66.839932 68.7510354,67.1151008 C68.8771593,67.3902695 68.7564407,67.715796 68.479869,67.8425894 C66.8294478,68.5970554 65.1015504,69.2975668 63.3439239,69.9225416 C63.2826637,69.9450227 63.2205027,69.9549144 63.1592425,69.9549144 Z M73.1365434,65.3777607 C72.9464566,65.3777607 72.7617752,65.2797431 72.6599752,65.1034912 C72.5077257,64.8409118 72.5978142,64.5054937 72.8599717,64.3535214 C74.4491327,63.4353929 75.9833398,62.4408287 77.4193504,61.396806 C77.665292,61.2196549 78.0094301,61.2727103 78.1878053,61.5173048 C78.3661805,61.7618992 78.3121274,62.1063098 78.0670867,62.2843602 C76.5995451,63.350864 75.0338071,64.3661108 73.4104124,65.3031234 C73.3239274,65.3543804 73.2293345,65.3777607 73.1365434,65.3777607 Z M81.9913416,58.9112947 C81.8435965,58.9112947 81.6958513,58.8519446 81.5877451,58.7350428 C81.4787381,58.6172418 81.4309912,58.4652695 81.4427027,58.3177935 C80.8246956,58.2485516 80.2211027,58.1622242 79.6319239,58.0579118 C79.3328301,58.0057557 79.1328336,57.7206952 79.1859858,57.4221461 C79.2382372,57.123597 79.5247186,56.9221662 79.8229115,56.9770202 C80.6237982,57.1173023 81.4562159,57.2261108 82.3120566,57.3025466 C83.4039292,56.247733 84.4210283,55.1506549 85.3453363,54.031995 C85.5390265,53.7990907 85.8840655,53.7649194 86.1200973,53.9582569 C86.3543274,54.1515945 86.3876602,54.4969043 86.1939699,54.7316071 C85.4444336,55.6380453 84.6354389,56.530995 83.7768956,57.399665 C84.2453558,57.4203476 84.7201221,57.4320378 85.1993929,57.4338363 C85.5029912,57.4356348 85.7480319,57.6820277 85.7462301,57.985073 C85.7444283,58.2872191 85.4984867,58.5309144 85.1966903,58.5309144 C85.1957894,58.5309144 85.1948885,58.5309144 85.1939876,58.5309144 C84.3516602,58.5273174 83.5237469,58.4949446 82.716554,58.4355945 C82.6003398,58.5462015 82.4823239,58.6550101 82.3652088,58.7638186 C82.2598053,58.8636348 82.1246726,58.9112947 81.9913416,58.9112947 Z M90.6821788,58.1954962 C90.4074088,58.1954962 90.171377,57.9913678 90.1362425,57.712602 C90.0993062,57.4122544 90.3146177,57.1388841 90.6164142,57.1011159 C92.3326,56.8933904 94.1370726,56.5822519 95.9802832,56.1766927 C96.2775752,56.1092494 96.5703628,56.2980907 96.6361274,56.5939421 C96.701892,56.8906927 96.514508,57.1829471 96.2181168,57.2485919 C94.3397717,57.6622443 92.5001646,57.9787783 90.7488442,58.1918992 C90.727223,58.194597 90.7047009,58.1954962 90.6821788,58.1954962 Z M74.4653487,56.5300957 C74.392377,56.5300957 74.3185044,56.5157078 74.2473345,56.4851335 C72.4374566,55.7054887 70.8257735,54.7046297 69.4555274,53.509534 C69.2267027,53.3099018 69.2032796,52.9636927 69.4032761,52.7352846 C69.6023717,52.5050781 69.9501133,52.4834962 70.1789381,52.6831285 C71.4626991,53.8026877 72.9779876,54.7432972 74.6824619,55.4770806 C74.9608354,55.5975793 75.0896619,55.9204081 74.9689434,56.1982746 C74.8806566,56.406 74.6779575,56.5300957 74.4653487,56.5300957 Z M101.418025,55.8727481 C101.181092,55.8727481 100.961276,55.7180781 100.891007,55.4797783 C100.805423,55.1884232 100.971186,54.8835793 101.262172,54.7972519 C103.036014,54.2729924 104.790938,53.7442368 106.52334,53.2127834 C106.813425,53.1219597 107.122428,53.2865214 107.210715,53.5760781 C107.299903,53.8656348 107.136842,54.1731763 106.846758,54.2622015 C105.109851,54.7945542 103.352225,55.3242091 101.574779,55.850267 C101.521627,55.8655542 101.469375,55.8727481 101.418025,55.8727481 Z M111.934956,52.6480579 C111.701627,52.6480579 111.485414,52.4987834 111.410641,52.2649798 C111.31875,51.9763224 111.479108,51.6669824 111.768292,51.5752594 C113.542135,51.0123325 115.287149,50.4494055 116.99883,49.8891763 C117.288915,49.7956549 117.597919,49.9512242 117.692512,50.2398816 C117.787104,50.5276398 117.63035,50.8378791 117.341166,50.9322997 C115.625881,51.4943275 113.878165,52.0581537 112.100719,52.6219798 C112.045765,52.640864 111.989009,52.6480579 111.934956,52.6480579 Z M88.9290566,50.4458086 C88.8344637,50.4458086 88.7389699,50.421529 88.6515841,50.370272 C88.3894265,50.2174005 88.3020407,49.8810831 88.4551912,49.619403 C89.4056248,48.0007632 90.1668726,46.3623401 90.7173133,44.749995 C90.8146088,44.463136 91.1290177,44.3075668 91.4145982,44.4073829 C91.7028814,44.5045013 91.8560319,44.816539 91.7578354,45.103398 C91.1839717,46.7867834 90.3911929,48.4926499 89.4029221,50.175136 C89.302023,50.3486902 89.1173416,50.4458086 88.9290566,50.4458086 Z M66.4258513,49.3694131 C66.2267558,49.3694131 66.0357681,49.262403 65.9375717,49.074461 C65.0511009,47.3793854 64.5132726,45.5503224 64.3348973,43.6394282 C64.3069699,43.3372821 64.5294885,43.0711058 64.8321858,43.04233 C65.1384867,43.0144534 65.4015451,43.2365668 65.4303735,43.5387128 C65.5943345,45.3066272 66.0934248,46.999005 66.9123292,48.5681864 C67.0528673,48.8370605 66.9483646,49.1688816 66.679,49.3082645 C66.5979204,49.3496297 66.5114354,49.3694131 66.4258513,49.3694131 Z M122.390627,49.2246348 C122.160901,49.2246348 121.947391,49.0807557 121.869915,48.8514484 C121.772619,48.5636902 121.926671,48.2525516 122.214954,48.1554332 C123.993301,47.5556373 125.728405,46.9612368 127.414862,46.3758287 C127.700442,46.2760126 128.014851,46.4270856 128.11485,46.7139446 C128.214848,46.9999043 128.063499,47.3128413 127.776117,47.4126574 C126.087858,47.9989647 124.34915,48.5942645 122.568101,49.1958589 C122.507742,49.2156423 122.448283,49.2246348 122.390627,49.2246348 Z M132.783235,45.618665 C132.557113,45.618665 132.345405,45.4783829 132.265227,45.254471 C132.162526,44.9694106 132.312073,44.6555743 132.598554,44.5530605 C134.395819,43.9127985 136.121014,43.2878237 137.766931,42.68533 C138.053412,42.5801184 138.367821,42.7266952 138.472324,43.0108564 C138.576827,43.2959169 138.430883,43.6115516 138.146204,43.7149647 C136.496683,44.3192569 134.767885,44.9442317 132.967917,45.5862922 C132.907558,45.6078741 132.844496,45.618665 132.783235,45.618665 Z M143.113683,41.8355441 C142.891165,41.8355441 142.682159,41.6997582 142.599278,41.4803426 C142.492073,41.1970806 142.636214,40.8796474 142.919993,40.7735365 C144.777618,40.0748237 146.495605,39.4192746 148.056839,38.8158816 C148.340618,38.7061738 148.65863,38.8473552 148.768538,39.1297179 C148.878446,39.4129798 148.737007,39.7304131 148.454129,39.8401209 C146.890193,40.4444131 145.169503,41.1008615 143.308274,41.8013728 C143.244312,41.8247531 143.178547,41.8355441 143.113683,41.8355441 Z M92.3073752,40.1116927 C92.2983664,40.1116927 92.2911593,40.1116927 92.2821504,40.1107935 C91.9785522,40.0964055 91.7443221,39.8410202 91.7578354,39.5379748 C91.7677451,39.3086675 91.7731504,39.0820579 91.7731504,38.8581461 C91.7731504,37.2215214 91.4956779,35.7197834 90.9479398,34.3960957 C90.8317257,34.1155315 90.9650566,33.7945013 91.2461327,33.679398 C91.526308,33.5642947 91.8488248,33.6964836 91.9641381,33.9770479 C92.567731,35.4347229 92.873131,37.0767431 92.873131,38.8581461 C92.873131,39.0991436 92.8677257,39.3419395 92.856915,39.5874332 C92.8425009,39.8814861 92.5992619,40.1116927 92.3073752,40.1116927 Z M65.4249681,38.7088715 C65.3727168,38.7088715 65.3195646,38.7016776 65.2673133,38.6854912 C64.9772283,38.5982645 64.8114655,38.2925214 64.8979504,38.0020655 C65.4528956,36.1514207 66.3447717,34.4662368 67.5501558,32.9914761 C67.7420442,32.7567733 68.0879841,32.7199043 68.3240159,32.9132418 C68.5591469,33.1047809 68.5942814,33.4500907 68.4032938,33.6847935 C67.2898,35.0471486 66.4654903,36.605539 65.9519858,38.316801 C65.879915,38.5551008 65.661,38.7088715 65.4249681,38.7088715 Z M153.379267,37.8680781 C153.161253,37.8680781 152.95405,37.7376877 152.868465,37.5227683 C152.755855,37.2413048 152.892789,36.922073 153.175667,36.8096675 C156.444078,35.508461 158.265667,34.7405063 158.269271,34.7396071 C158.549446,34.6209068 158.871062,34.7521965 158.989078,35.0318615 C159.107094,35.3115264 158.976465,35.6334559 158.69629,35.7503577 C158.69629,35.7503577 156.866593,36.5210101 153.581966,37.8294106 C153.516202,37.8563879 153.447735,37.8680781 153.379267,37.8680781 Z M88.0443876,30.5374383 C87.9389841,30.5374383 87.8317788,30.506864 87.7380867,30.4439169 C86.3912637,29.5374786 84.744446,28.9556675 82.8444796,28.7137708 C82.5435841,28.6751033 82.3309752,28.3999345 82.3688124,28.0995869 C82.4075504,27.7992393 82.6859239,27.5960101 82.9841168,27.6247859 C85.0561522,27.8882645 86.8615257,28.5312242 88.3524903,29.5338816 C88.6038372,29.7029395 88.6705027,30.0446524 88.5011363,30.2955416 C88.393931,30.4520101 88.2209611,30.5374383 88.0443876,30.5374383 Z M72.2068301,30.4430176 C72.0086354,30.4430176 71.8176478,30.3360076 71.7194513,30.1489647 C71.5780124,29.8800907 71.682515,29.5482695 71.9509788,29.4079874 C73.2464513,28.7299572 74.6644442,28.239869 76.1653186,27.9512116 C76.568915,27.8738766 76.9653044,27.8064332 77.3544867,27.7488816 C77.6526796,27.7066171 77.9346566,27.9116448 77.9788,28.2110932 C78.0229434,28.5114408 77.8157398,28.7902065 77.5157451,28.8342695 C77.1418779,28.8891234 76.7608035,28.953869 76.373423,29.0285063 C74.9779522,29.2955819 73.6617593,29.7505995 72.4626814,30.3791713 C72.3798,30.422335 72.2924142,30.4430176 72.2068301,30.4430176 Z" id="Shape" fill="#DAE7FF"></path>
            <g id="Group" transform="translate(138.736283, 0.000000)">
                <polygon id="Path" fill="#60DFA0" points="0.798184071 13.6289471 17.0402389 21.7356348 65.7646018 0.119599496"></polygon>
                <polygon id="Path" fill="#45D48F" points="19.7464973 35.2449824 17.0402389 21.7356348 65.7646018 0.119599496"></polygon>
                <polygon id="Path" fill="#1EAF69" points="19.7464973 35.2449824 25.1608159 24.4369647 38.6957115 21.7356348"></polygon>
                <polygon id="Path" fill="#60DFA0" points="25.1608159 24.4369647 38.6957115 29.8414232 65.7646018 0.119599496"></polygon>
            </g>
        </g>
        <g id="woman_10_" transform="translate(377.525664, 74.156171)" fill-rule="nonzero">
            <path d="M75.3301982,18.3508791 C75.3301982,18.3508791 73.2887929,13.4490982 72.763577,12.4887053 C72.2383611,11.5283123 74.4653487,3.90361965 73.3815841,3.74625189 C72.2969186,3.58978338 71.3690071,8.409733 71.3690071,8.409733 C71.3690071,8.409733 68.8186018,0.457715365 67.7744761,0.124095718 C66.7312513,-0.209523929 63.5736496,5.23360202 63.9763451,7.93673048 C64.3790407,10.6398589 67.6366407,15.0668388 68.6528389,16.3266801 C69.6690372,17.5865214 71.3545929,22.2041411 71.3545929,22.2041411 L75.3301982,18.3508791 Z" id="Path" fill="#F1B282"></path>
            <path d="M73.9077009,14.2862947 C73.9077009,14.2862947 86.8948584,43.9190932 96.898285,52.6102897 L84.5705752,54.7900579 C84.5705752,54.7900579 73.2914956,33.7117708 68.5591469,16.9984156 L73.9077009,14.2862947 Z" id="Path" fill="#1277D7"></path>
            <g id="Group" transform="translate(0.000000, 0.899244)">
                <polygon id="Rectangle" fill="#FFD670" transform="translate(46.688623, 19.779319) rotate(-16.804064) translate(-46.688623, -19.779319) " points="0.148054403 13.9476487 93.2233266 13.9945662 93.2291912 25.6109893 0.153918925 25.5640717"></polygon>
                <polygon id="Rectangle" fill="#FFC22C" transform="translate(48.931210, 27.192089) rotate(-16.804064) translate(-48.931210, -27.192089) " points="2.39259625 25.2327097 95.4678685 25.2796273 95.4698232 29.1514685 2.39455094 29.104551"></polygon>
                <polygon id="Rectangle" fill="#FFEAB6" transform="translate(20.697279, 27.614315) rotate(-16.804064) translate(-20.697279, -27.614315) " points="12.9379994 21.8021932 28.4506949 21.8100129 28.4565594 33.4264359 12.9438639 33.4186162"></polygon>
                <polygon id="Rectangle" fill="#FFCC4F" transform="translate(68.966904, 13.063079) rotate(-16.804064) translate(-68.966904, -13.063079) " points="57.3294504 7.24900312 80.5984937 7.26073262 80.6043582 18.8771557 57.335315 18.8654262"></polygon>
            </g>
            <g id="Group" transform="translate(88.286726, 16.186398)">
                <path d="M7.53860531,5.44402519 C3.59723363,5.5294534 4.13686372,11.431194 3.30264425,12.29267 C1.8143823,13.8294786 0.843228319,15.516461 0.70539292,16.5415995 C0.495486726,18.1071839 2.49004602,16.5415995 1.65402478,21.1457305 C0.81800354,25.7498615 6.79807788,25.0700327 7.01879469,26.9530504 C7.2395115,28.836068 4.75036637,37.6144912 4.75036637,37.6144912 L15.8943133,37.3905793 C15.8943133,37.3905793 15.058292,29.903471 15.6510743,21.3822317 C16.2438566,12.8609924 21.1725982,5.14907305 7.53860531,5.44402519 Z" id="Path" fill="#F1B282"></path>
                <path d="M28.527423,0.797629723 C28.527423,0.797629723 26.1211593,6.52221914 25.9580991,8.95197733 C25.7950389,11.3817355 20.7311646,8.25236524 20.7311646,8.25236524 C20.7311646,8.25236524 21.8257398,0.717596977 28.527423,0.797629723 Z" id="Path" fill="#03193F"></path>
                <path d="M15.7402619,27.1149144 C14.6988389,28.0177557 14.5646071,22.4631234 13.0421115,21.6052443 C11.5196159,20.7473652 9.33316814,19.9641234 9.53226372,19.0927557 C9.73135929,18.2204887 11.8601504,17.6063048 12.1727575,16.5047305 C12.4844637,15.4022569 4.33055398,13.330398 5.40891327,6.52851385 C6.48727257,-0.273370277 24.5662319,0.43163728 24.0004761,10.7342796 C23.4338195,21.0351234 19.1690301,24.1411134 15.7402619,27.1149144 Z" id="Path" fill="#0B224E"></path>
                <path d="M37.1506938,13.3924458 C36.1588195,22.2500025 22.1437522,24.9891008 22.913108,12.343927 C23.6824637,-0.301246851 38.3758973,2.44324685 37.1506938,13.3924458 Z" id="Path" fill="#0B224E"></path>
            </g>
            <path d="M59.8602018,30.5374383 C59.8602018,30.5374383 56.9485416,26.1770025 56.2197257,25.3595894 C55.4918106,24.5421763 55.0368637,16.8212645 53.9449912,16.9120882 C52.8531186,17.0029118 53.0350973,21.9082897 53.0350973,21.9082897 C53.0350973,21.9082897 48.7576956,14.7323199 47.665823,14.6414962 C46.5739504,14.5506725 44.2073257,21.6358186 45.2091097,24.1788816 C46.2099929,26.7219446 50.7684708,29.1660907 52.0423221,30.1660504 C53.3161735,31.1651108 56.5017027,34.9806045 56.5017027,34.9806045 L59.8602018,30.5374383 Z" id="Path" fill="#F1B282"></path>
            <polygon id="Path" fill="#F1B282" points="150.607244 149.884247 154.783747 153.882287 150.953184 158.806549 145.845166 154.251877"></polygon>
            <path d="M151.186513,150.075786 C148.323501,147.251259 133.339081,132.580088 123.922131,125.55699 C119.134828,113.328166 108.909784,89.6717456 108.909784,89.6717456 C88.1615027,81.8600101 93.8037451,102.388859 94.7136389,105.113569 C95.6235327,107.83828 112.134051,133.299484 114.108791,135.270627 C117.420444,138.576249 142.653331,153.268103 146.710016,155.620526 C147.027127,155.803972 147.428922,155.732033 147.66045,155.448771 L151.240566,151.073947 C151.483805,150.778096 151.459481,150.345559 151.186513,150.075786 Z" id="Path" fill="#0B224E"></path>
            <rect id="Rectangle" fill="#F1B282" x="96.3667628" y="164.474486" width="6.70438584" height="7.35761713"></rect>
            <path d="M112.186303,87.8543728 C105.452188,82.2224055 94.5316602,87.3094307 92.1659363,92.8586675 C89.8002124,98.4079043 91.6533327,124.369987 91.471354,128.072176 C91.2893752,131.773466 96.0217239,168.550761 96.0217239,168.550761 L103.416188,168.550761 C103.416188,168.550761 105.733264,146.837607 104.849496,131.467723 C107.862055,124.701809 113.061963,112.39565 113.845733,106.386 C114.959227,97.8467758 112.186303,87.8543728 112.186303,87.8543728 Z" id="Path" fill="#102B5E"></path>
            <path d="M108.363848,72.7758438 C108.363848,68.5817683 108.961135,51.1265365 104.723372,47.3416171 C101.264874,44.2536121 90.7092053,49.7030327 84.7030053,48.2498539 C78.6968053,46.7966751 58.8413009,28.2659471 58.8413009,28.2659471 L53.9206673,32.799937 C63.3754549,45.2481763 77.9103327,55.3170151 86.0831611,60.4004433 C84.3985062,62.4453249 82.6120513,65.0873048 82.755292,66.9820126 C83.021954,70.5061511 89.168692,72.3343149 89.2993204,77.1641562 C89.4299487,81.9939975 85.9624425,93.6005441 89.2524743,96.6166096 C92.5425062,99.6326751 112.158375,100.464476 116.162809,97.1939244 C120.168143,93.924272 108.363848,82.0272695 108.363848,72.7758438 Z" id="Path" fill="#1B90FB"></path>
            <path d="M105.480115,80.6523249 C107.159365,85.7276599 112.55026,89.6672494 116.057405,91.782272 C113.828616,86.589136 108.367451,79.0705542 108.367451,72.7731461 C108.367451,71.4575516 108.422405,68.8335567 108.375559,65.7401562 C107.056664,67.7688514 103.369342,74.2461083 105.480115,80.6523249 Z" id="Path" fill="#1277D7"></path>
            <path d="M103.232407,171.021884 C103.904467,170.962534 104.581032,172.04972 104.463917,174.68001 C104.346802,177.3103 104.778326,178.718516 102.698182,178.917249 C101.455862,179.03595 89.6263416,178.814736 85.7885717,178.716718 C85.5363239,178.710423 85.300292,178.577335 85.1426372,178.351625 C84.9849823,178.126814 84.9192177,177.830063 84.9642619,177.540506 C85.1642584,176.261781 86.0687469,174.329305 89.6506655,173.950723 C92.2812496,173.452542 94.8469699,170.825849 96.0100124,170.794375 C97.1730549,170.762902 97.6649381,171.956199 99.5622018,171.833003 C101.459465,171.709806 102.070265,171.125297 103.232407,171.021884 Z" id="Path" fill="#0B224E"></path>
            <path d="M152.887384,152.36796 C153.283773,151.822118 154.549517,152.026247 156.461195,153.840023 C158.372873,155.653798 159.720596,156.252695 158.506204,157.950469 C157.780991,158.963917 149.853204,167.73065 147.260457,170.557874 C147.090189,170.744018 146.834338,170.833942 146.560469,170.805166 C146.2866,170.77639 146.019938,170.631612 145.830752,170.4077 C144.994731,169.418531 144.127179,167.46897 146.191106,164.522146 C147.540632,162.212887 147.237935,158.557458 147.97666,157.660912 C148.715386,156.763466 149.940589,157.176219 151.09192,155.666388 C152.244152,154.155657 152.202712,153.311267 152.887384,152.36796 Z" id="Path" fill="#0B224E"></path>
        </g>
    </g>
</svg>